<!--
  - Copyright (c) 2023. MyGuide
  -
  - MyGuide is a closed source project developed by Arcane Arts.
  - Do not copy, share, distribute or otherwise allow this source file
  - to leave hardware approved by Arcane Arts unless otherwise
  - approved by Arcane Arts.
  -->

<svg id="svg" version="1.1" xmlns="http://www.w3.org/2000/svg" xmlns:xlink="http://www.w3.org/1999/xlink" width="400" height="400" viewBox="0, 0, 400,400"><g id="svgg"><path id="path0" d="M173.224 69.492 C 153.656 71.188,138.114 78.983,128.187 92.082 C 126.160 94.756,122.941 100.233,122.938 101.012 C 122.938 101.084,122.148 101.313,121.183 101.522 C 112.530 103.391,103.520 108.450,96.629 115.308 C 79.202 132.653,75.089 160.084,85.498 189.563 C 86.383 192.069,85.954 191.957,89.276 190.545 C 109.822 181.806,134.402 182.499,154.857 192.394 C 161.693 195.701,163.179 197.059,163.179 200.000 C 163.179 204.595,159.018 206.356,154.513 203.667 C 148.624 200.153,139.873 197.100,131.837 195.755 C 116.882 193.251,102.007 195.447,88.735 202.116 L 86.286 203.347 85.731 204.327 C 82.160 210.630,80.072 219.295,80.381 226.531 C 80.992 240.872,88.524 252.403,101.834 259.374 C 102.801 259.880,103.576 260.375,103.557 260.474 C 103.538 260.572,103.119 261.829,102.625 263.265 C 96.023 282.484,107.045 301.228,128.816 307.807 C 131.570 308.639,136.373 309.551,138.003 309.551 C 138.493 309.551,138.593 309.617,138.689 310.000 C 138.863 310.698,140.657 314.372,141.411 315.573 C 147.997 326.074,159.787 330.868,178.286 330.568 C 185.391 330.453,188.844 329.539,193.510 326.539 L 194.776 325.725 194.776 199.520 L 194.776 73.314 193.510 72.573 C 191.336 71.298,188.828 70.429,185.469 69.785 C 184.130 69.528,175.256 69.316,173.224 69.492 M215.673 69.625 C 212.083 70.139,208.897 71.162,206.490 72.573 L 205.224 73.314 205.224 199.436 L 205.224 325.558 206.490 326.386 C 213.778 331.156,223.445 331.920,234.266 328.582 C 243.873 325.618,252.334 319.698,257.139 312.578 C 258.179 311.036,258.241 311.210,256.286 310.184 C 238.098 300.639,226.465 282.894,226.383 264.571 C 226.368 261.310,226.385 261.109,226.736 260.454 C 228.597 256.970,233.414 256.617,235.547 259.808 C 236.299 260.934,236.403 261.439,236.575 264.816 C 237.384 280.714,246.088 293.440,261.674 301.513 C 267.136 304.342,266.991 304.319,272.245 303.259 C 294.845 298.701,304.069 283.383,296.736 262.590 C 296.333 261.448,296.021 260.498,296.043 260.479 C 296.064 260.461,296.816 260.077,297.714 259.626 C 317.700 249.596,325.527 227.672,316.213 207.815 C 315.226 205.710,315.406 205.756,313.835 207.214 C 301.188 218.953,281.406 225.817,259.755 225.976 C 256.399 226.001,255.777 225.895,254.587 225.100 C 251.670 223.150,251.668 218.647,254.583 216.698 C 255.778 215.900,256.235 215.824,260.816 215.667 C 283.906 214.875,301.294 207.547,312.207 194.009 C 313.567 192.321,313.500 192.455,314.649 189.147 C 324.872 159.740,320.755 132.700,303.415 115.360 C 296.503 108.448,287.548 103.410,278.817 101.522 C 277.852 101.314,277.062 101.081,277.062 101.005 C 277.061 100.929,276.634 100.010,276.111 98.964 C 268.816 84.354,252.934 73.567,234.032 70.384 C 228.665 69.480,219.365 69.096,215.673 69.625 M171.074 122.368 C 173.994 123.957,174.494 127.306,172.643 132.869 C 168.573 145.104,155.794 152.655,138.857 152.834 C 134.236 152.883,132.043 151.053,132.283 147.347 C 132.495 144.056,134.727 142.535,139.348 142.532 C 152.361 142.522,162.313 136.091,163.517 126.912 C 164.076 122.660,167.656 120.507,171.074 122.368 M244.217 132.817 C 245.853 133.707,246.628 134.962,246.872 137.113 C 247.375 141.544,247.742 142.893,249.302 146.041 C 254.516 156.556,265.847 162.743,281.143 163.426 C 284.838 163.591,285.329 163.686,286.478 164.453 C 289.636 166.564,289.306 171.475,285.889 173.219 C 282.478 174.959,268.412 172.828,260.437 169.364 C 246.908 163.488,236.728 149.941,236.736 137.825 C 236.738 133.453,240.617 130.857,244.217 132.817 M129.641 226.608 C 150.749 231.083,163.758 248.693,163.237 272.085 C 163.134 276.736,160.596 279.086,156.791 278.057 C 154.059 277.318,153.199 275.674,152.981 270.776 C 152.141 251.868,143.275 240.013,127.592 236.824 C 122.820 235.854,120.841 233.499,121.859 230.000 C 122.803 226.750,125.260 225.680,129.641 226.608 " stroke="none" fill="#000000" fill-rule="evenodd"></path></g></svg>