<?xml version="1.0" encoding="UTF-8" standalone="no"?>
<!DOCTYPE svg PUBLIC "-//W3C//DTD SVG 1.1//EN" "http://www.w3.org/Graphics/SVG/1.1/DTD/svg11.dtd">
<svg width="100%" height="100%" viewBox="0 0 229 229" version="1.1" xmlns="http://www.w3.org/2000/svg" xmlns:xlink="http://www.w3.org/1999/xlink" xml:space="preserve" xmlns:serif="http://www.serif.com/" style="fill-rule:evenodd;clip-rule:evenodd;stroke-linejoin:round;stroke-miterlimit:2;">
    <g transform="matrix(1,0,0,1,-2668.1,-228.917)">
        <rect id="Artboard1" x="2668.1" y="228.917" width="228.571" height="228.571" style="fill:none;"/>
        <g id="Artboard11" serif:id="Artboard1">
            <g transform="matrix(1.35182,0.362218,-0.362218,1.35182,-822.428,-1128.57)">
                <g transform="matrix(0.830467,-4.0328e-17,-2.00558e-17,0.810876,1738.53,-242.65)">
                    <path d="M1312.62,668.511C1312.62,652.778 1300.15,640.004 1284.78,640.004L1229.11,640.004C1213.75,640.004 1201.28,652.778 1201.28,668.511L1201.28,776.474C1201.28,792.208 1213.75,804.982 1229.11,804.982L1284.78,804.982C1300.15,804.982 1312.62,792.208 1312.62,776.474L1312.62,668.511Z" style="fill:white;"/>
                </g>
                <g transform="matrix(0.70825,0,0,0.70825,1892.15,-168.503)">
                    <path d="M1312.62,667.839C1312.62,652.476 1300.15,640.004 1284.78,640.004L1229.11,640.004C1213.75,640.004 1201.28,652.476 1201.28,667.839L1201.28,777.147C1201.28,792.509 1213.75,804.982 1229.11,804.982L1284.78,804.982C1300.15,804.982 1312.62,792.509 1312.62,777.147L1312.62,667.839Z" style="fill:rgb(0,175,255);"/>
                </g>
            </g>
            <g transform="matrix(1.35182,-0.362218,0.362218,1.35182,-1135.35,887.087)">
                <g transform="matrix(0.830467,-4.0328e-17,-2.00558e-17,0.810876,1738.53,-242.65)">
                    <path d="M1312.62,668.511C1312.62,652.778 1300.15,640.004 1284.78,640.004L1229.11,640.004C1213.75,640.004 1201.28,652.778 1201.28,668.511L1201.28,776.474C1201.28,792.208 1213.75,804.982 1229.11,804.982L1284.78,804.982C1300.15,804.982 1312.62,792.208 1312.62,776.474L1312.62,668.511Z" style="fill:white;"/>
                </g>
                <g transform="matrix(0.70825,0,0,0.70825,1892.15,-168.503)">
                    <path d="M1312.62,667.839C1312.62,652.476 1300.15,640.004 1284.78,640.004L1229.11,640.004C1213.75,640.004 1201.28,652.476 1201.28,667.839L1201.28,777.147C1201.28,792.509 1213.75,804.982 1229.11,804.982L1284.78,804.982C1300.15,804.982 1312.62,792.509 1312.62,777.147L1312.62,667.839Z" style="fill:rgb(0,175,255);"/>
                </g>
            </g>
        </g>
    </g>
</svg>
