<?xml version="1.0" encoding="UTF-8" standalone="no"?>
<!DOCTYPE svg PUBLIC "-//W3C//DTD SVG 1.1//EN" "http://www.w3.org/Graphics/SVG/1.1/DTD/svg11.dtd">
<svg width="100%" height="100%" viewBox="0 0 229 229" version="1.1" xmlns="http://www.w3.org/2000/svg" xmlns:xlink="http://www.w3.org/1999/xlink" xml:space="preserve" xmlns:serif="http://www.serif.com/" style="fill-rule:evenodd;clip-rule:evenodd;stroke-linejoin:round;stroke-miterlimit:2;">
    <g transform="matrix(1,0,0,1,-1772,0)">
        <g transform="matrix(1,0,0,1,-896.102,-228.917)">
            <rect id="Artboard1" x="2668.1" y="228.917" width="228.571" height="228.571" style="fill:none;"/>
            <g id="Artboard11" serif:id="Artboard1">
                <g transform="matrix(1,0,0,1,896.102,228.917)">
                    <path d="M1886.29,202.585L1847.12,213.079C1829.87,217.701 1812.12,207.45 1807.5,190.204L1775.79,71.86C1771.17,54.613 1781.42,36.859 1798.66,32.238L1861.16,15.492C1870.02,13.119 1879.01,14.668 1886.29,19.072C1893.56,14.668 1902.55,13.119 1911.41,15.492L1973.91,32.238C1991.15,36.859 2001.4,54.613 1996.78,71.86L1965.07,190.204C1960.45,207.45 1942.7,217.701 1925.45,213.079L1886.29,202.585ZM1896.49,28.848C1898.38,31.693 1899.85,34.888 1900.78,38.368L1901.56,41.269C1905.06,40.033 1908.96,39.804 1912.82,40.837L1960.02,53.485C1970.18,56.207 1976.22,66.668 1973.5,76.83L1963.63,113.653C1960.9,123.815 1950.44,129.854 1940.28,127.131L1923.35,122.594L1932.49,156.712C1937.11,173.958 1926.86,191.712 1909.62,196.333L1909.17,196.452L1923.92,200.403C1938.63,204.344 1953.77,195.603 1957.71,180.894L1985.75,76.24C1989.69,61.532 1980.95,46.391 1966.24,42.45L1912.94,28.168C1907.31,26.657 1901.6,27.01 1896.49,28.848ZM1893.42,47.677C1889.48,32.969 1874.34,24.227 1859.63,28.168L1806.33,42.45C1791.62,46.391 1782.88,61.532 1786.82,76.24L1814.86,180.894C1818.8,195.603 1833.94,204.344 1848.65,200.403L1901.95,186.122C1916.66,182.181 1925.4,167.04 1921.46,152.331L1893.42,47.677ZM1899.54,111.664L1909.41,148.487C1912.13,158.649 1906.09,169.109 1895.93,171.832L1848.73,184.479C1838.57,187.202 1828.11,181.163 1825.38,171.001L1815.52,134.178C1812.8,124.016 1818.83,113.555 1829,110.833L1876.2,98.185C1886.36,95.463 1896.82,101.502 1899.54,111.664Z" style="fill:white;"/>
                </g>
            </g>
        </g>
    </g>
</svg>
